
<svg xmlns="http://www.w3.org/2000/svg" version="1.1" xmlns:xlink="http://www.w3.org/1999/xlink" preserveAspectRatio="none" x="0px" y="0px" width="220px" height="220px" viewBox="0 0 220 220">
<defs>
<filter id="Filter_1" x="-20%" y="-20%" width="140%" height="140%" color-interpolation-filters="sRGB">
<feColorMatrix in="SourceGraphic" type="matrix" values="0.88 0 0 0 0 0 0.88 0 0 0 0 0 0.88 0 0.06274509803921569 0 0 0 1 0" result="result1"/>
</filter>

<g id="OrmamentPiece_0_Layer1_0_FILL">
<path fill="#FFFFFF" stroke="none" d="
M 133.95 -3.7
Q 133.82578125 -3.6943359375 133.7 -3.7 95.1314453125 -0.0921875 69.8 8.5 69.6900390625 8.5384765625 69.55 8.55 42.5939453125 17.3576171875 22.35 57.25 22.296484375 57.35625 22.25 57.45 3.5986328125 94.15 -5.8 112.2 -7.5302734375 115.6267578125 -6.8 119.4 -6.7603515625 119.499609375 -6.75 119.55
L -6.75 119.5
Q -6.024609375 123.2046875 -3.15 125.65 -0.2869140625 128.12421875 3.65 128.3
L 17.05 128.65
Q 17.1546875 128.65078125 17.2 128.65
L 17.2 128.65
Q 17.2724609375 128.65 17.35 128.65
L 17.4 128.65
Q 45.053515625 128.4541015625 78.95 129.75 116.1505859375 131.1763671875 137.45 112.55 137.5345703125 112.5140625 137.6 112.45
L 137.6 112.4
Q 157.9341796875 94.8794921875 171.95 71.3 180.5150390625 57.0046875 185.55 48.7
L 185.5 48.7 185.55 48.65 185.5 48.65 209.1 9.85
Q 209.135546875 9.848828125 209.15 9.8 211.0185546875 6.50078125 210.45 2.75 209.948828125 -0.95859375 207.25 -3.55 207.201953125 -3.5765625 207.15 -3.65 207.121484375 -3.6552734375 207.1 -3.7 207.064453125 -3.7142578125 207 -3.75
L 207 -3.8
Q 204.1431640625 -6.4423828125 200.35 -6.7 200.29765625 -6.7017578125 200.25 -6.7 200.2109375 -6.7013671875 200.15 -6.7 194.93125 -7.0060546875 186.3 -7
L 186.25 -7
Q 157.6533203125 -6.8421875 133.95 -3.7
M 194.4 7.1
L 173.55 41.4 173.6 41.45
Q 169.441796875 48.2236328125 159.9 64.15 147.0259765625 85.8193359375 128.35 101.9
L 128.3 101.95
Q 128.2619140625 101.9986328125 128.2 102.05
L 128.15 102.05
Q 110.314453125 116.9291015625 79.5 115.75 45.3224609375 114.4486328125 17.4 114.65 17.3748046875 114.649609375 17.3 114.65
L 8.85 114.4
Q 18.1138671875 96.4837890625 34.7 63.8 34.7873046875 63.6783203125 34.85 63.55 51.9181640625 29.908984375 74 21.85 74.1650390625 21.844140625 74.3 21.8 98.3046875 13.7130859375 134.8 10.3 134.988671875 10.2822265625 135.15 10.25 135.2755859375 10.240234375 135.35 10.2
L 135.3 10.2
Q 158.4142578125 7.14296875 186.3 7
L 186.3 7
Q 190.892578125 7.00390625 194.4 7.1 Z"/>
</g>

<g id="Circle_0_Layer0_0_FILL">
<path fill="#FFFFFF" stroke="none" d="
M 28.95 28.95
Q 33.9 23.95 33.9 16.95 33.9 10 28.95 5 23.95 0 16.95 0 9.95 0 5 5 0 10 0 16.95 0 23.95 5 28.95 9.95 33.9 16.95 33.9 23.95 33.9 28.95 28.95 Z"/>
</g>
</defs>

<g transform="matrix( 0.34613037109375, 0, 0, 0.34613037109375, 10.65,9.9) ">
<g transform="matrix( 1, 0, 0, 1, -18.45,-15.85) ">
<g transform="matrix( 1.1004180908203125, 0.1491241455078125, -0.1491241455078125, 1.1004180908203125, 80.9,9.7) ">
<g transform="matrix( 1, 0, 0, 1, 236.25,114.8) ">
<g transform="matrix( 1, 0, 0, 1, 0,0) ">
<use filter="url(#Filter_1)" xlink:href="#OrmamentPiece_0_Layer1_0_FILL"/>
</g>

<g transform="matrix( 1, 0, 0, 1, 194.2,-18.3) ">
<g transform="matrix( 1, 0, 0, 1, 0,0) ">
<use filter="url(#Filter_1)" xlink:href="#Circle_0_Layer0_0_FILL"/>
</g>
</g>
</g>

<g transform="matrix( 0.70709228515625, 0.70709228515625, -0.70709228515625, 0.70709228515625, 322.25,150.4) ">
<g transform="matrix( 1, 0, 0, 1, 0,0) ">
<use filter="url(#Filter_1)" xlink:href="#OrmamentPiece_0_Layer1_0_FILL"/>
</g>

<g transform="matrix( 1, 0, 0, 1, 194.2,-18.3) ">
<g transform="matrix( 1, 0, 0, 1, 0,0) ">
<use filter="url(#Filter_1)" xlink:href="#Circle_0_Layer0_0_FILL"/>
</g>
</g>
</g>

<g transform="matrix( 0.70709228515625, -0.70709228515625, 0.70709228515625, 0.70709228515625, 150.2,150.35) ">
<g transform="matrix( 1, 0, 0, 1, 0,0) ">
<use filter="url(#Filter_1)" xlink:href="#OrmamentPiece_0_Layer1_0_FILL"/>
</g>

<g transform="matrix( 1, 0, 0, 1, 194.2,-18.3) ">
<g transform="matrix( 1, 0, 0, 1, 0,0) ">
<use filter="url(#Filter_1)" xlink:href="#Circle_0_Layer0_0_FILL"/>
</g>
</g>
</g>

<g transform="matrix( 0, 0.999969482421875, -0.999969482421875, 0, 357.95,236.4) ">
<g transform="matrix( 1, 0, 0, 1, 0,0) ">
<use filter="url(#Filter_1)" xlink:href="#OrmamentPiece_0_Layer1_0_FILL"/>
</g>

<g transform="matrix( 1, 0, 0, 1, 194.2,-18.3) ">
<g transform="matrix( 1, 0, 0, 1, 0,0) ">
<use filter="url(#Filter_1)" xlink:href="#Circle_0_Layer0_0_FILL"/>
</g>
</g>
</g>

<g transform="matrix( -0.707061767578125, 0.7070770263671875, -0.7070770263671875, -0.707061767578125, 322.35,322.45) ">
<g transform="matrix( 1, 0, 0, 1, 0,0) ">
<use filter="url(#Filter_1)" xlink:href="#OrmamentPiece_0_Layer1_0_FILL"/>
</g>

<g transform="matrix( 1, 0, 0, 1, 194.2,-18.3) ">
<g transform="matrix( 1, 0, 0, 1, 0,0) ">
<use filter="url(#Filter_1)" xlink:href="#Circle_0_Layer0_0_FILL"/>
</g>
</g>
</g>

<g transform="matrix( -0.9999237060546875, 0.0000152587890625, -0.0000152587890625, -0.9999237060546875, 236.35,358.1) ">
<g transform="matrix( 1, 0, 0, 1, 0,0) ">
<use filter="url(#Filter_1)" xlink:href="#OrmamentPiece_0_Layer1_0_FILL"/>
</g>

<g transform="matrix( 1, 0, 0, 1, 194.2,-18.3) ">
<g transform="matrix( 1, 0, 0, 1, 0,0) ">
<use filter="url(#Filter_1)" xlink:href="#Circle_0_Layer0_0_FILL"/>
</g>
</g>
</g>

<g transform="matrix( -0.707061767578125, -0.7070159912109375, 0.7070159912109375, -0.707061767578125, 150.35,322.5) ">
<g transform="matrix( 1, 0, 0, 1, 0,0) ">
<use filter="url(#Filter_1)" xlink:href="#OrmamentPiece_0_Layer1_0_FILL"/>
</g>

<g transform="matrix( 1, 0, 0, 1, 194.2,-18.3) ">
<g transform="matrix( 1, 0, 0, 1, 0,0) ">
<use filter="url(#Filter_1)" xlink:href="#Circle_0_Layer0_0_FILL"/>
</g>
</g>
</g>

<g transform="matrix( -0.000030517578125, -0.9998779296875, 0.9998779296875, -0.000030517578125, 114.75,236.55) ">
<g transform="matrix( 1, 0, 0, 1, 0,0) ">
<use filter="url(#Filter_1)" xlink:href="#OrmamentPiece_0_Layer1_0_FILL"/>
</g>

<g transform="matrix( 1, 0, 0, 1, 194.2,-18.3) ">
<g transform="matrix( 1, 0, 0, 1, 0,0) ">
<use filter="url(#Filter_1)" xlink:href="#Circle_0_Layer0_0_FILL"/>
</g>
</g>
</g>
</g>
</g>
</g>
</svg>
